<?xml version="1.0" encoding="UTF-8" standalone="no"?>
<svg width="60px" height="50px" viewBox="0 0 60 50" version="1.1" xmlns="http://www.w3.org/2000/svg" xmlns:xlink="http://www.w3.org/1999/xlink">
    <defs></defs>
    <g id="weather-icons-new" stroke="none" stroke-width="1" fill="none" fill-rule="evenodd">
        <g id="resort-weather-5">
            <path d="M42.9506426,42 C42.6450357,42 42.397007,41.7517265 42.397007,41.4458181 C42.397007,41.1399096 42.6450357,40.8916361 42.9506426,40.8916361 C47.3302688,40.8916361 50.8927289,37.3249211 50.8927289,32.9409725 C50.8927289,28.5570239 47.3302688,24.98957 42.9506426,24.98957 C42.1334765,24.98957 41.3244304,25.1144457 40.5449116,25.3627192 L40.0355669,25.5252792 L39.856189,25.0206042 C38.1738751,20.2878904 33.6790927,17.1083639 28.6720129,17.1083639 C22.5502802,17.1083639 17.4693823,21.6984682 16.8537396,27.7870805 L16.7968996,28.352346 L16.2336678,28.2814107 C15.9295373,28.2429875 15.6763413,28.2245147 15.434218,28.2245147 C11.9455759,28.2245147 9.10727108,31.0656208 9.10727108,34.557706 C9.10727108,38.0497911 11.9455759,40.8916361 15.434218,40.8916361 C15.7398248,40.8916361 15.9878536,41.1399096 15.9878536,41.4458181 C15.9878536,41.7517265 15.7398248,42 15.434218,42 C11.3351005,42 8,38.6608691 8,34.557706 C8,30.4545429 11.3351005,27.1161509 15.434218,27.1161509 C15.5597088,27.1161509 15.6866758,27.1198454 15.8188102,27.1279734 C16.7326779,20.7460142 22.1642117,16 28.6720129,16 C33.9721505,16 38.7481797,19.2585898 40.7146932,24.1612527 C41.4447539,23.9750476 42.1954837,23.8812061 42.9506426,23.8812061 C47.9407442,23.8812061 52,27.9459459 52,32.9409725 C52,37.9359991 47.9407442,42 42.9506426,42" id="Fill-60" fill="#022A45"></path>
            <path d="M39.75164,46.0781353 L36.9940134,44.5009849 L39.75164,42.9231779 C39.9895607,42.787262 40.070414,42.4858831 39.9332285,42.2508207 C39.7967058,42.0151018 39.4918492,41.9343401 39.2545912,42.0702561 L36.4976273,43.6474064 L36.4976273,40.4924491 C36.4976273,40.2206172 36.2749495,40 36.0005785,40 C35.7262076,40 35.5035298,40.2206172 35.5035298,40.4924491 L35.5035298,43.648063 L32.7472286,42.0702561 C32.5099706,41.9343401 32.2051141,42.0151018 32.0679286,42.2508207 C31.9307431,42.4858831 32.0122591,42.787262 32.2501798,42.9231779 L35.006481,44.5009849 L32.2488543,46.0781353 C32.0109337,46.2140512 31.9294177,46.5154301 32.0666031,46.7504924 C32.1587228,46.9087328 32.3257312,46.996717 32.4973787,46.996717 C32.5822084,46.996717 32.6670381,46.9757058 32.7459031,46.9310571 L35.5035298,45.3532502 L35.5035298,48.5075509 C35.5035298,48.7793828 35.7262076,49 36.0005785,49 C36.2749495,49 36.4976273,48.7793828 36.4976273,48.5075509 L36.4976273,45.3532502 L39.2545912,46.9310571 C39.3327936,46.9757058 39.418286,46.996717 39.5024529,46.996717 C39.6741004,46.996717 39.8417715,46.9087328 39.9332285,46.7504924 C40.070414,46.5154301 39.9895607,46.2140512 39.75164,46.0781353" id="Fill-61" fill="#A3BCC6"></path>
            <path d="M25.7779083,43.624509 L23.8891758,42.5009165 L25.7773157,41.3767129 C25.9900722,41.25024 26.0623738,40.9698001 25.9396981,40.7504582 C25.8170223,40.5317273 25.5450022,40.4571877 25.3328383,40.5830497 L23.4441058,41.7072532 L23.4441058,39.4582351 C23.4441058,39.2052893 23.2449799,39 22.9996284,39 C22.7542769,39 22.555151,39.2052893 22.555151,39.4582351 L22.555151,41.7066422 L20.6676038,40.5830497 C20.4548473,40.4571877 20.1828271,40.5317273 20.0601513,40.7504582 C19.9374756,40.9698001 20.0103699,41.25024 20.2231264,41.3767129 L22.1112663,42.5009165 L20.2225337,43.624509 C20.0097772,43.7509819 19.936883,44.0314218 20.0595587,44.2507637 C20.1419352,44.397399 20.2918722,44.4798813 20.4447724,44.4798813 C20.5206299,44.4798813 20.59708,44.4603299 20.6670111,44.4181723 L22.555151,43.2939688 L22.555151,45.5417649 C22.555151,45.7947107 22.7542769,46 22.9996284,46 C23.2449799,46 23.4441058,45.7947107 23.4441058,45.5417649 L23.4441058,43.2933578 L25.3334309,44.4181723 C25.4033621,44.4603299 25.4798122,44.4798813 25.555077,44.4798813 C25.7085698,44.4798813 25.8585069,44.397399 25.9402907,44.2507637 C26.0629665,44.0314218 25.9906648,43.7509819 25.7779083,43.624509" id="Fill-62" fill="#A3BCC6"></path>
            <path d="M30.2854208,37.686082 C30.360974,37.7321368 30.4422413,37.7538097 30.5235085,37.7538097 C30.6879478,37.7538097 30.8479427,37.6623772 30.9361939,37.4998307 C31.0676183,37.2573654 30.9895255,36.9464951 30.7615962,36.8062987 L29.4524314,35.9996614 L30.7615962,35.1937013 C30.9895255,35.0535049 31.0676183,34.7426346 30.9361939,34.5001693 C30.8047694,34.2570268 30.5127152,34.1737216 30.2854208,34.313918 L28.976256,35.1205554 L28.976256,33.507958 C28.976256,33.2275652 28.7629295,33 28.5000807,33 C28.2372318,33 28.0239053,33.2275652 28.0239053,33.507958 L28.0239053,35.1205554 L26.7147405,34.313918 C26.4874461,34.1737216 26.1953919,34.2570268 26.0646024,34.5001693 C25.933178,34.7426346 26.0106358,35.0535049 26.2385651,35.1937013 L27.5477299,35.9996614 L26.2379302,36.8062987 C26.0100009,36.9464951 25.9325431,37.2573654 26.0639675,37.4998307 C26.1522186,37.6623772 26.3122136,37.7538097 26.4766528,37.7538097 C26.5572851,37.7538097 26.6391873,37.7321368 26.7141056,37.686082 L28.0239053,36.8794446 L28.0239053,38.492042 C28.0239053,38.7724348 28.2372318,39 28.5000807,39 C28.7629295,39 28.976256,38.7724348 28.976256,38.492042 L28.976256,36.8794446 L30.2854208,37.686082" id="Fill-63" fill="#A3BCC6"></path>
        </g>
    </g>
</svg>
