<?xml version="1.0" encoding="UTF-8" standalone="no"?>
<svg width="60px" height="50px" viewBox="0 0 60 50" version="1.1" xmlns="http://www.w3.org/2000/svg" xmlns:xlink="http://www.w3.org/1999/xlink">
    <defs></defs>
    <g id="weather-icons-new" stroke="none" stroke-width="1" fill="none" fill-rule="evenodd">
        <g id="resort-weather-4">
            <path d="M42.9500562,42 L37.774758,42 C37.4691563,42 37.2211317,41.7517124 37.2211317,41.4457866 C37.2211317,41.1398607 37.4691563,40.8915731 37.774758,40.8915731 L42.9500562,40.8915731 C47.3296089,40.8915731 50.8927475,37.3246554 50.8927475,32.9404576 C50.8927475,28.5569987 47.3296089,24.990081 42.9500562,24.990081 C42.1343802,24.990081 41.3253477,25.1149638 40.5436274,25.3617735 L40.0342913,25.5236038 L39.8549164,25.0196391 C38.1733689,20.2873952 33.6794001,17.1084269 28.6716661,17.1084269 C22.5507742,17.1084269 17.4699616,21.6987921 16.853591,27.7862726 L16.7967521,28.3486145 L16.2364823,28.280631 C15.9139027,28.2414665 15.6666163,28.2244707 15.4348315,28.2244707 C11.9462479,28.2244707 9.1072525,31.0657382 9.1072525,34.5587608 C9.1072525,38.0503055 11.9462479,40.8915731 15.4348315,40.8915731 L22.1529015,40.8915731 C22.4585032,40.8915731 22.7065278,41.1398607 22.7065278,41.4457866 C22.7065278,41.7517124 22.4585032,42 22.1529015,42 L15.4348315,42 C11.3350445,42 8,38.6621572 8,34.5587608 C8,30.4546256 11.3350445,27.1160438 15.4348315,27.1160438 C15.5581056,27.1160438 15.6843324,27.1189996 15.8194172,27.127867 C16.7332696,20.745545 22.1647122,16 28.6716661,16 C33.9731911,16 38.748402,19.258775 40.7141443,24.1609777 C41.4456691,23.9755009 42.1956482,23.8816541 42.9500562,23.8816541 C47.9400742,23.8816541 52,27.945886 52,32.9404576 C52,37.9357681 47.9400742,42 42.9500562,42" id="Fill-58" fill="#022A45"></path>
            <path d="M33.7511816,44.0281476 L30.9932912,42.4509973 L33.750519,40.8738469 C33.9884053,40.737931 34.0699095,40.4365521 33.9327439,40.2008331 C33.7955782,39.9657708 33.4907657,39.8843525 33.2535421,40.0209251 L30.4969769,41.5980754 L30.4969769,38.4437747 C30.4969769,38.1719428 30.2743312,37.9513256 30,37.9513256 C29.7256688,37.9513256 29.5030231,38.1719428 29.5030231,38.4437747 L29.5030231,41.5980754 L26.7464579,40.0209251 C26.5085716,39.8843525 26.2044218,39.9657708 26.0672561,40.2008331 C25.9300905,40.4365521 26.0115947,40.737931 26.249481,40.8738469 L29.0067088,42.4509973 L26.2488184,44.0281476 C26.0109321,44.1640636 25.9294279,44.4654425 26.0665935,44.7011614 C26.1586999,44.8587451 26.3263468,44.947386 26.4973068,44.947386 C26.5821242,44.947386 26.6676042,44.9257182 26.7457953,44.8810695 L29.5030231,43.3039191 L29.5030231,46.4588765 C29.5030231,46.7307084 29.7256688,46.9513256 30,46.9513256 C30.2743312,46.9513256 30.4969769,46.7307084 30.4969769,46.4588765 L30.4969769,43.3039191 L33.2542047,44.8810695 C33.3323958,44.9257182 33.4178758,44.947386 33.5026932,44.947386 C33.6736532,44.947386 33.8413001,44.8587451 33.9334065,44.7011614 C34.0705721,44.4654425 33.9890679,44.1640636 33.7511816,44.0281476" id="Fill-59" fill="#A3BCC6"></path>
        </g>
    </g>
</svg>
