<?xml version="1.0" encoding="UTF-8" standalone="no"?>
<svg width="60px" height="50px" viewBox="0 0 60 50" version="1.1" xmlns="http://www.w3.org/2000/svg" xmlns:xlink="http://www.w3.org/1999/xlink">
    <defs></defs>
    <g id="weather-icons-new" stroke="none" stroke-width="1" fill="none" fill-rule="evenodd">
        <g id="resort-weather-8">
            <path d="M42.397007,41.4458181 C42.397007,41.1399096 42.6450357,40.8916361 42.9506426,40.8916361 C47.3302688,40.8916361 50.8927289,37.3249211 50.8927289,32.9409725 C50.8927289,28.5570239 47.3302688,24.98957 42.9506426,24.98957 C42.1334765,24.98957 41.3244304,25.1144457 40.5449116,25.3627192 L40.0355669,25.5252792 L39.856189,25.0206042 C38.1738751,20.2878904 33.6790927,17.1083639 28.6720129,17.1083639 C22.5502802,17.1083639 17.4693823,21.6984682 16.8537396,27.7870805 L16.7968996,28.352346 L16.2336678,28.2814107 C15.9295373,28.2429875 15.6763413,28.2245147 15.434218,28.2245147 C11.9455759,28.2245147 9.10727108,31.0656208 9.10727108,34.557706 C9.10727108,38.0497911 11.9455759,40.8916361 15.434218,40.8916361 C15.7398248,40.8916361 15.9878536,41.1399096 15.9878536,41.4458181 C15.9878536,41.7517265 15.7398248,42 15.434218,42 C11.3351005,42 8,38.6608691 8,34.557706 C8,30.4545429 11.3351005,27.1161509 15.434218,27.1161509 C15.5597088,27.1161509 15.6866758,27.1198454 15.8188102,27.1279734 C16.7326779,20.7460142 22.1642117,16 28.6720129,16 C33.9721505,16 38.7481797,19.2585898 40.7146932,24.1612527 C41.4447539,23.9750476 42.1954837,23.8812061 42.9506426,23.8812061 C47.9407442,23.8812061 52,27.9459459 52,32.9409725 C52,37.9359991 47.9407442,42 42.9506426,42 C42.6450357,42 42.397007,41.7517265 42.397007,41.4458181 Z" id="Fill-60-Copy" fill="#022A45"></path>
            <path d="M23.9991861,45 C22.3421053,45 21,43.7903812 21,41.8509647 C21,39.9107093 23.9991861,36 23.9991861,36 C23.9991861,36 27,39.9107093 27,41.8509647 C27,43.7903812 25.6570808,45 23.9991861,45 Z" id="Fill-20-Copy" fill="#81BDD5"></path>
            <path d="M38.75164,46.5781353 L35.9940134,45.0009849 L38.75164,43.4231779 C38.9895607,43.287262 39.070414,42.9858831 38.9332285,42.7508207 C38.7967058,42.5151018 38.4918492,42.4343401 38.2545912,42.5702561 L35.4976273,44.1474064 L35.4976273,40.9924491 C35.4976273,40.7206172 35.2749495,40.5 35.0005785,40.5 C34.7262076,40.5 34.5035298,40.7206172 34.5035298,40.9924491 L34.5035298,44.148063 L31.7472286,42.5702561 C31.5099706,42.4343401 31.2051141,42.5151018 31.0679286,42.7508207 C30.9307431,42.9858831 31.0122591,43.287262 31.2501798,43.4231779 L34.006481,45.0009849 L31.2488543,46.5781353 C31.0109337,46.7140512 30.9294177,47.0154301 31.0666031,47.2504924 C31.1587228,47.4087328 31.3257312,47.496717 31.4973787,47.496717 C31.5822084,47.496717 31.6670381,47.4757058 31.7459031,47.4310571 L34.5035298,45.8532502 L34.5035298,49.0075509 C34.5035298,49.2793828 34.7262076,49.5 35.0005785,49.5 C35.2749495,49.5 35.4976273,49.2793828 35.4976273,49.0075509 L35.4976273,45.8532502 L38.2545912,47.4310571 C38.3327936,47.4757058 38.418286,47.496717 38.5024529,47.496717 C38.6741004,47.496717 38.8417715,47.4087328 38.9332285,47.2504924 C39.070414,47.0154301 38.9895607,46.7140512 38.75164,46.5781353" id="Fill-61-Copy" fill="#A3BCC6"></path>
        </g>
    </g>
</svg>
