<?xml version="1.0" encoding="UTF-8" standalone="no"?>
<svg width="60px" height="50px" viewBox="0 0 60 50" version="1.1" xmlns="http://www.w3.org/2000/svg" xmlns:xlink="http://www.w3.org/1999/xlink">
    <defs></defs>
    <g id="weather-icons-new" stroke="none" stroke-width="1" fill="none" fill-rule="evenodd">
        <g id="resort-weather-9">
            <path d="M30,38.9011577 C30,40.1933275 29.1059591,41 28.0010868,41 C26.8954899,41 26,40.1933275 26,38.9011577 C26,37.6067472 28.0010868,35 28.0010868,35 C28.0010868,35 30,37.6067472 30,38.9011577" id="Fill-19-Copy" fill="#81BDD5"></path>
            <path d="M25.4993218,50 C24.1184211,50 23,49.0591854 23,47.5507503 C23,46.0416628 25.4993218,43 25.4993218,43 C25.4993218,43 28,46.0416628 28,47.5507503 C28,49.0591854 26.8809007,50 25.4993218,50 Z" id="Fill-20-Copy" fill="#81BDD5"></path>
            <path d="M42.9506426,42 C42.6450357,42 42.397007,41.7517335 42.397007,41.4458338 C42.397007,41.1399341 42.6450357,40.8916676 42.9506426,40.8916676 C47.3302688,40.8916676 50.8927289,37.325054 50.8927289,32.94123 C50.8927289,28.556667 47.3302688,24.9893145 42.9506426,24.9893145 C42.1334765,24.9893145 41.3244304,25.1149255 40.5449116,25.363192 L40.0355669,25.5257474 L39.856189,25.0203478 C38.1738751,20.2885074 33.6790927,17.1083324 28.6720129,17.1083324 C22.5502802,17.1083324 17.4693823,21.6990451 16.8537396,27.7867455 L16.7968996,28.3527339 L16.2336678,28.2810617 C15.9295373,28.2433784 15.6763413,28.2249062 15.434218,28.2249062 C11.9455759,28.2249062 9.10727108,31.0666705 9.10727108,34.5586564 C9.10727108,38.0506423 11.9455759,40.8916676 15.434218,40.8916676 C15.7398248,40.8916676 15.9878536,41.1399341 15.9878536,41.4458338 C15.9878536,41.7517335 15.7398248,42 15.434218,42 C11.3351005,42 8,38.6617029 8,34.5586564 C8,30.4556099 11.3351005,27.1165738 15.434218,27.1165738 C15.5597088,27.1165738 15.6866758,27.1202683 15.8188102,27.128396 C16.7326779,20.7466182 22.1642117,16 28.6720129,16 C33.9721505,16 38.7481797,19.2584972 40.7146932,24.1617597 C41.4447539,23.9755598 42.1954837,23.8809822 42.9506426,23.8809822 C47.9407442,23.8809822 52,27.9456065 52,32.94123 C52,37.9361146 47.9407442,42 42.9506426,42" id="Fill-22-Copy" fill="#022A45"></path>
            <path d="M39.75164,46.0781353 L36.9940134,44.5009849 L39.75164,42.9231779 C39.9895607,42.787262 40.070414,42.4858831 39.9332285,42.2508207 C39.7967058,42.0151018 39.4918492,41.9343401 39.2545912,42.0702561 L36.4976273,43.6474064 L36.4976273,40.4924491 C36.4976273,40.2206172 36.2749495,40 36.0005785,40 C35.7262076,40 35.5035298,40.2206172 35.5035298,40.4924491 L35.5035298,43.648063 L32.7472286,42.0702561 C32.5099706,41.9343401 32.2051141,42.0151018 32.0679286,42.2508207 C31.9307431,42.4858831 32.0122591,42.787262 32.2501798,42.9231779 L35.006481,44.5009849 L32.2488543,46.0781353 C32.0109337,46.2140512 31.9294177,46.5154301 32.0666031,46.7504924 C32.1587228,46.9087328 32.3257312,46.996717 32.4973787,46.996717 C32.5822084,46.996717 32.6670381,46.9757058 32.7459031,46.9310571 L35.5035298,45.3532502 L35.5035298,48.5075509 C35.5035298,48.7793828 35.7262076,49 36.0005785,49 C36.2749495,49 36.4976273,48.7793828 36.4976273,48.5075509 L36.4976273,45.3532502 L39.2545912,46.9310571 C39.3327936,46.9757058 39.418286,46.996717 39.5024529,46.996717 C39.6741004,46.996717 39.8417715,46.9087328 39.9332285,46.7504924 C40.070414,46.5154301 39.9895607,46.2140512 39.75164,46.0781353" id="Fill-61-Copy-2" fill="#A3BCC6"></path>
            <path d="M22.2854208,42.686082 C22.360974,42.7321368 22.4422413,42.7538097 22.5235085,42.7538097 C22.6879478,42.7538097 22.8479427,42.6623772 22.9361939,42.4998307 C23.0676183,42.2573654 22.9895255,41.9464951 22.7615962,41.8062987 L21.4524314,40.9996614 L22.7615962,40.1937013 C22.9895255,40.0535049 23.0676183,39.7426346 22.9361939,39.5001693 C22.8047694,39.2570268 22.5127152,39.1737216 22.2854208,39.313918 L20.976256,40.1205554 L20.976256,38.507958 C20.976256,38.2275652 20.7629295,38 20.5000807,38 C20.2372318,38 20.0239053,38.2275652 20.0239053,38.507958 L20.0239053,40.1205554 L18.7147405,39.313918 C18.4874461,39.1737216 18.1953919,39.2570268 18.0646024,39.5001693 C17.933178,39.7426346 18.0106358,40.0535049 18.2385651,40.1937013 L19.5477299,40.9996614 L18.2379302,41.8062987 C18.0100009,41.9464951 17.9325431,42.2573654 18.0639675,42.4998307 C18.1522186,42.6623772 18.3122136,42.7538097 18.4766528,42.7538097 C18.5572851,42.7538097 18.6391873,42.7321368 18.7141056,42.686082 L20.0239053,41.8794446 L20.0239053,43.492042 C20.0239053,43.7724348 20.2372318,44 20.5000807,44 C20.7629295,44 20.976256,43.7724348 20.976256,43.492042 L20.976256,41.8794446 L22.2854208,42.686082" id="Fill-63-Copy" fill="#A3BCC6"></path>
        </g>
    </g>
</svg>
