<?xml version="1.0" encoding="UTF-8" standalone="no"?>
<svg width="60px" height="50px" viewBox="0 0 60 50" version="1.1" xmlns="http://www.w3.org/2000/svg" xmlns:xlink="http://www.w3.org/1999/xlink">
    <defs></defs>
    <g id="weather-icons-new" stroke="none" stroke-width="1" fill="none" fill-rule="evenodd">
        <g id="resort-weather-1" fill="#FFB514">
            <path d="M30.0003437,16.0101388 C25.6060259,16.0101388 22.0310459,19.5941113 22.0310459,23.9989899 C22.0310459,28.4052153 25.6060259,31.9898612 30.0003437,31.9898612 C34.3939741,31.9898612 37.9689541,28.4052153 37.9689541,23.9989899 C37.9689541,19.5941113 34.3939741,16.0101388 30.0003437,16.0101388 L30.0003437,16.0101388 Z M30.0003437,33 C25.0375759,33 21,28.9621385 21,23.9989899 C21,19.0371881 25.0375759,15 30.0003437,15 C34.9624241,15 39,19.0371881 39,23.9989899 C39,28.9621385 34.9624241,33 30.0003437,33 L30.0003437,33 Z" id="Fill-3"></path>
            <path d="M30.0146667,44.8657627 C29.7386667,44.8657627 29.5146667,44.6379661 29.5146667,44.3572881 L29.5146667,36.5898305 C29.5146667,36.3091525 29.7386667,36.0813559 30.0146667,36.0813559 C30.2906667,36.0813559 30.5146667,36.3091525 30.5146667,36.5898305 L30.5146667,44.3572881 C30.5146667,44.6379661 30.2906667,44.8657627 30.0146667,44.8657627" id="Fill-4"></path>
            <path d="M42.63,40.1959322 C42.4873333,40.1959322 42.346,40.1342373 42.2466667,40.0142373 L37.3366667,34.0644068 C37.1593333,33.8494915 37.1866667,33.5288136 37.3986667,33.3477966 C37.6093333,33.1667797 37.9253333,33.1952542 38.1026667,33.4108475 L43.0133333,39.360678 C43.1906667,39.5755932 43.1626667,39.8962712 42.9513333,40.0772881 C42.858,40.1572881 42.7433333,40.1959322 42.63,40.1959322" id="Fill-5"></path>
            <path d="M49.3426667,28.3722034 C49.314,28.3722034 49.2846667,28.3694915 49.2553333,28.3640678 L41.7326667,27.0162712 C41.4606667,26.9674576 41.2786667,26.7037288 41.3266667,26.4271186 C41.3753333,26.1505085 41.634,25.9661017 41.906,26.0149153 L49.4293333,27.3627119 C49.7006667,27.4115254 49.8826667,27.6752542 49.8346667,27.9518644 C49.792,28.1986441 49.5806667,28.3722034 49.3426667,28.3722034" id="Fill-6"></path>
            <path d="M39.9626667,18.5572881 C39.8246667,18.3138983 39.906,18.0033898 40.1453333,17.8630508 L46.76,13.9783051 C46.9986667,13.8386441 47.3046667,13.920678 47.4433333,14.1647458 C47.5813333,14.4081356 47.4993333,14.7186441 47.26,14.8589831 L40.6453333,18.7437288 C40.5666667,18.7898305 40.4806667,18.8115254 40.396,18.8115254 C40.2233333,18.8115254 40.0553333,18.720678 39.9626667,18.5572881 Z" id="Fill-7"></path>
            <path d="M34.1133333,13.4515254 C34.0566667,13.4515254 33.9993333,13.4420339 33.9426667,13.420339 C33.6833333,13.3247458 33.5493333,13.0332203 33.644,12.7694915 L36.256,5.46983051 C36.3506667,5.20610169 36.6386667,5.06847458 36.8966667,5.16610169 C37.156,5.26169492 37.29,5.55322034 37.1953333,5.81762712 L34.5833333,13.1166102 C34.5093333,13.3233898 34.318,13.4515254 34.1133333,13.4515254" id="Fill-8"></path>
            <path d="M25.914,13.4515254 C25.7093333,13.4515254 25.518,13.3233898 25.444,13.1172881 L22.8306667,5.81830508 C22.736,5.55389831 22.87,5.26237288 23.1293333,5.16677966 C23.3893333,5.07186441 23.6753333,5.20677966 23.77,5.46983051 L26.3833333,12.7688136 C26.478,13.0332203 26.3446667,13.3247458 26.0846667,13.420339 C26.0286667,13.4413559 25.9706667,13.4515254 25.914,13.4515254" id="Fill-9"></path>
            <path d="M19.632,18.8115254 C19.5473333,18.8115254 19.4613333,18.7898305 19.3826667,18.7437288 L12.7666667,14.8610169 C12.528,14.720678 12.446,14.4094915 12.584,14.1667797 C12.7213333,13.9227119 13.0273333,13.839322 13.2666667,13.980339 L19.8826667,17.8630508 C20.1213333,18.0033898 20.2033333,18.3138983 20.0653333,18.5572881 C19.9733333,18.720678 19.8053333,18.8115254 19.632,18.8115254" id="Fill-10"></path>
            <path d="M10.6853333,28.3749153 C10.4473333,28.3749153 10.2366667,28.2013559 10.1933333,27.9545763 C10.1453333,27.6779661 10.3273333,27.4142373 10.5986667,27.3654237 L18.122,26.0149153 C18.3933333,25.9667797 18.6533333,26.1505085 18.7013333,26.4271186 C18.7493333,26.7037288 18.5673333,26.9674576 18.2953333,27.0162712 L10.7726667,28.3667797 C10.7433333,28.3722034 10.714,28.3749153 10.6853333,28.3749153" id="Fill-11"></path>
            <path d="M17.3993333,40.1979661 C17.286,40.1979661 17.172,40.1586441 17.078,40.079322 C16.8666667,39.8989831 16.8386667,39.5783051 17.016,39.3627119 L21.9253333,33.4108475 C22.102,33.1952542 22.4173333,33.1667797 22.6293333,33.3477966 C22.8413333,33.5281356 22.8686667,33.8488136 22.6913333,34.0644068 L17.7826667,40.0162712 C17.6833333,40.1362712 17.542,40.1979661 17.3993333,40.1979661" id="Fill-12"></path>
        </g>
    </g>
</svg>