<?xml version="1.0" encoding="UTF-8" standalone="no"?>
<svg width="60px" height="50px" viewBox="0 0 60 50" version="1.1" xmlns="http://www.w3.org/2000/svg" xmlns:xlink="http://www.w3.org/1999/xlink">
    <defs></defs>
    <g id="weather-icons-new" stroke="none" stroke-width="1" fill="none" fill-rule="evenodd">
        <g id="resort-weather-2">
            <path d="M22.028129,9.92051613 C21.9748387,9.92051613 21.9201935,9.91170968 21.8673548,9.89206452 C21.6232581,9.80354839 21.4974839,9.53370968 21.5862258,9.28983871 L23.7499032,3.34187097 C23.8384194,3.098 24.1096129,2.97132258 24.3523548,3.06096774 C24.5964516,3.14970968 24.7222258,3.41932258 24.6334839,3.66341935 L22.4698065,9.61116129 C22.4004839,9.80219355 22.2198387,9.92051613 22.028129,9.92051613" id="Fill-113" fill="#FFB514"></path>
            <path d="M27.2340968,14.2889677 C27.0719677,14.2889677 26.9136774,14.2047419 26.8267419,14.0539032 C26.6969032,13.829 26.7736774,13.5415484 26.9988065,13.4114839 L32.4807097,10.2463548 C32.7056129,10.1162903 32.9930645,10.1932903 33.1229032,10.4184194 C33.2527419,10.6435484 33.1757419,10.931 32.9508387,11.0606129 L27.4689355,14.2259677 C27.394871,14.2686452 27.3140323,14.2889677 27.2340968,14.2889677" id="Fill-114" fill="#FFB514"></path>
            <path d="M15.2329355,9.92051613 C15.041,9.92051613 14.8608065,9.80219355 14.7910323,9.6113871 L12.6250968,3.66432258 C12.536129,3.42022581 12.6619032,3.1503871 12.9057742,3.06141935 C13.1503226,2.97358065 13.4197097,3.09822581 13.5084516,3.34232258 L15.6746129,9.2896129 C15.7638065,9.53348387 15.6378065,9.80354839 15.3939355,9.89206452 C15.3406452,9.91148387 15.2864516,9.92051613 15.2329355,9.92051613" id="Fill-115" fill="#FFB514"></path>
            <path d="M10.0267419,14.2889677 C9.94680645,14.2889677 9.86596774,14.2686452 9.79190323,14.2259677 L4.30932258,11.0624194 C4.08464516,10.9325806 4.00764516,10.645129 4.13748387,10.4202258 C4.26687097,10.1946452 4.55432258,10.117871 4.77967742,10.2481613 L10.2622581,13.4114839 C10.4869355,13.5415484 10.5639355,13.829 10.4343226,14.0539032 C10.3473871,14.2047419 10.1893226,14.2889677 10.0267419,14.2889677" id="Fill-116" fill="#FFB514"></path>
            <path d="M2.6123871,22.082 C2.3886129,22.082 2.19012903,21.9216774 2.14993548,21.6936129 C2.10477419,21.438 2.27570968,21.1939032 2.53109677,21.1487419 L8.7656129,20.0479355 C9.02122581,20.0039032 9.26509677,20.1734839 9.31048387,20.4293226 C9.35541935,20.6849355 9.18470968,20.9288065 8.92909677,20.9741935 L2.69480645,22.075 C2.66725806,22.0799677 2.63970968,22.082 2.6123871,22.082" id="Fill-117" fill="#FFB514"></path>
            <path d="M8.17603226,31.7167097 C8.06945161,31.7167097 7.96241935,31.6805806 7.87412903,31.6069677 C7.67519355,31.439871 7.64922581,31.1433871 7.81609677,30.9444516 L11.8842258,26.0943548 C12.0510968,25.8954194 12.3475806,25.869 12.5467419,26.0360968 C12.7456774,26.2029677 12.771871,26.4994516 12.6047742,26.6986129 L8.53664516,31.5487097 C8.4436129,31.6593548 8.3103871,31.7167097 8.17603226,31.7167097" id="Fill-118" fill="#FFB514"></path>
            <path d="M14.8470323,25.0531613 C14.7553548,25.0531613 14.6632258,25.0265161 14.5821613,24.9711935 C12.5528387,23.5856452 11.3416129,21.2731613 11.3416129,18.7856774 C11.3416129,14.684129 14.6112903,11.3471613 18.6301935,11.3471613 C21.2073226,11.3471613 23.6187097,12.7636452 24.9229677,15.0436129 C25.0519032,15.2691935 24.9737742,15.5564194 24.7484194,15.685129 C24.5232903,15.8149677 24.2353871,15.7361613 24.1069032,15.5105806 C22.9692903,13.5225806 20.870871,12.2876452 18.6301935,12.2876452 C15.1297419,12.2876452 12.281871,15.2028065 12.281871,18.7856774 C12.281871,20.9624516 13.3402258,22.9845484 15.1123548,24.194871 C15.326871,24.3411935 15.3819677,24.6338387 15.2354194,24.848129 C15.1444194,24.9815806 14.9969677,25.0531613 14.8470323,25.0531613" id="Fill-119" fill="#FFB514"></path>
            <path d="M20.4348522,28.2247267 C16.9460763,28.2247267 14.1070921,31.0663309 14.1070921,34.5589199 C14.1070921,38.0507104 16.9460763,40.8915162 20.4348522,40.8915162 L47.9502396,40.8915162 C52.3299535,40.8915162 55.892642,37.3249396 55.892642,32.9410392 C55.892642,28.5566065 52.3299535,24.9897637 47.9502396,24.9897637 C47.1345435,24.9897637 46.3246965,25.115383 45.5440955,25.3628956 L45.0344184,25.5244442 L44.8552205,25.0203701 C43.1733125,20.2880891 38.6792734,17.1084838 33.6721009,17.1084838 C27.5509236,17.1084838 22.4703703,21.699177 21.8543443,27.7869222 L21.7974476,28.3506121 L21.2353936,28.2808828 C20.9248548,28.2428244 20.6704151,28.2247267 20.4348522,28.2247267 L20.4348522,28.2247267 Z M47.9502396,42 L20.4348522,42 C16.3353677,42 13,38.6617737 13,34.5589199 C13,30.4550014 16.3353677,27.1162429 20.4348522,27.1162429 C20.5590146,27.1162429 20.6858357,27.120235 20.8195694,27.1284854 C21.7336383,20.7463866 27.1648771,16 33.6721009,16 C38.9733282,16 43.7478624,19.2589158 45.7145196,24.1620604 C46.4456684,23.9754944 47.1954282,23.8812799 47.9502396,23.8812799 C52.9403963,23.8812799 57,27.945277 57,32.9410392 C57,37.9362691 52.9403963,42 47.9502396,42 L47.9502396,42 Z" id="Fill-120" fill="#022A45"></path>
        </g>
    </g>
</svg>
