<?xml version="1.0" encoding="UTF-8" standalone="no"?>
<svg width="60px" height="50px" viewBox="0 0 60 50" version="1.1" xmlns="http://www.w3.org/2000/svg" xmlns:xlink="http://www.w3.org/1999/xlink">
    <defs></defs>
    <g id="weather-icons-new" stroke="none" stroke-width="1" fill="none" fill-rule="evenodd">
        <g id="resort-weather-6">
            <path d="M33.2967619,43.9463187 C33.2967619,46.0937363 31.6866878,47.4334799 29.6994286,47.4334799 C27.7121693,47.4334799 26.1020952,46.0937363 26.1020952,43.9463187 C26.1020952,41.7989011 29.6994286,37.4673187 29.6994286,37.4673187 C29.6994286,37.4673187 33.2967619,41.7989011 33.2967619,43.9463187" id="Fill-14" fill="#81BDD5"></path>
            <path d="M37.774758,42 C37.4691563,42 37.2211317,41.7517124 37.2211317,41.4457866 C37.2211317,41.1398607 37.4691563,40.8915731 37.774758,40.8915731 L42.9500562,40.8915731 C47.3296089,40.8915731 50.8927475,37.3246554 50.8927475,32.9404576 C50.8927475,28.5569987 47.3296089,24.990081 42.9500562,24.990081 C42.1343802,24.990081 41.3253477,25.1149638 40.5436274,25.3617735 L40.0342913,25.5236038 L39.8549164,25.0196391 C38.1733689,20.2873952 33.6794001,17.1084269 28.6716661,17.1084269 C22.5507742,17.1084269 17.4699616,21.6987921 16.853591,27.7862726 L16.7967521,28.3486145 L16.2364823,28.280631 C15.9139027,28.2414665 15.6666163,28.2244707 15.4348315,28.2244707 C11.9462479,28.2244707 9.1072525,31.0657382 9.1072525,34.5587608 C9.1072525,38.0503055 11.9462479,40.8915731 15.4348315,40.8915731 L22.1529015,40.8915731 C22.4585032,40.8915731 22.7065278,41.1398607 22.7065278,41.4457866 C22.7065278,41.7517124 22.4585032,42 22.1529015,42 L15.4348315,42 C11.3350445,42 8,38.6621572 8,34.5587608 C8,30.4546256 11.3350445,27.1160438 15.4348315,27.1160438 C15.5581056,27.1160438 15.6843324,27.1189996 15.8194172,27.127867 C16.7332696,20.745545 22.1647122,16 28.6716661,16 C33.9731911,16 38.748402,19.258775 40.7141443,24.1609777 C41.4456691,23.9755009 42.1956482,23.8816541 42.9500562,23.8816541 C47.9400742,23.8816541 52,27.945886 52,32.9404576 C52,37.9357681 47.9400742,42 42.9500562,42 L37.774758,42 Z" id="Fill-58-Copy" fill="#022A45"></path>
        </g>
    </g>
</svg>
