<?xml version="1.0" encoding="UTF-8" standalone="no"?>
<svg width="60px" height="50px" viewBox="0 0 60 50" version="1.1" xmlns="http://www.w3.org/2000/svg" xmlns:xlink="http://www.w3.org/1999/xlink">
    <defs></defs>
    <g id="weather-icons-new" stroke="none" stroke-width="1" fill="none" fill-rule="evenodd">
        <g id="resort-weather-7">
            <path d="M33,34.5513507 C33,36.0588821 31.8824488,37 30.5013584,37 C29.1193624,37 28,36.0588821 28,34.5513507 C28,33.041205 30.5013584,30 30.5013584,30 C30.5013584,30 33,33.041205 33,34.5513507" id="Fill-19" fill="#81BDD5"></path>
            <path d="M22.9991861,45 C21.3421053,45 20,43.7903812 20,41.8509647 C20,39.9107093 22.9991861,36 22.9991861,36 C22.9991861,36 26,39.9107093 26,41.8509647 C26,43.7903812 24.6570808,45 22.9991861,45 Z" id="Fill-20" fill="#81BDD5"></path>
            <path d="M40,45.1510985 C40,47.5221232 38.2095025,49 35.9995528,49 C33.7904975,49 32,47.5221232 32,45.1510985 C32,42.7809187 35.9995528,38 35.9995528,38 C35.9995528,38 40,42.7809187 40,45.1510985" id="Fill-21" fill="#81BDD5"></path>
            <path d="M42.9506426,42 C42.6450357,42 42.397007,41.7517335 42.397007,41.4458338 C42.397007,41.1399341 42.6450357,40.8916676 42.9506426,40.8916676 C47.3302688,40.8916676 50.8927289,37.325054 50.8927289,32.94123 C50.8927289,28.556667 47.3302688,24.9893145 42.9506426,24.9893145 C42.1334765,24.9893145 41.3244304,25.1149255 40.5449116,25.363192 L40.0355669,25.5257474 L39.856189,25.0203478 C38.1738751,20.2885074 33.6790927,17.1083324 28.6720129,17.1083324 C22.5502802,17.1083324 17.4693823,21.6990451 16.8537396,27.7867455 L16.7968996,28.3527339 L16.2336678,28.2810617 C15.9295373,28.2433784 15.6763413,28.2249062 15.434218,28.2249062 C11.9455759,28.2249062 9.10727108,31.0666705 9.10727108,34.5586564 C9.10727108,38.0506423 11.9455759,40.8916676 15.434218,40.8916676 C15.7398248,40.8916676 15.9878536,41.1399341 15.9878536,41.4458338 C15.9878536,41.7517335 15.7398248,42 15.434218,42 C11.3351005,42 8,38.6617029 8,34.5586564 C8,30.4556099 11.3351005,27.1165738 15.434218,27.1165738 C15.5597088,27.1165738 15.6866758,27.1202683 15.8188102,27.128396 C16.7326779,20.7466182 22.1642117,16 28.6720129,16 C33.9721505,16 38.7481797,19.2584972 40.7146932,24.1617597 C41.4447539,23.9755598 42.1954837,23.8809822 42.9506426,23.8809822 C47.9407442,23.8809822 52,27.9456065 52,32.94123 C52,37.9361146 47.9407442,42 42.9506426,42" id="Fill-22" fill="#022A45"></path>
        </g>
    </g>
</svg>
