<?xml version="1.0" encoding="UTF-8" standalone="no"?>
<svg width="60px" height="50px" viewBox="0 0 60 50" version="1.1" xmlns="http://www.w3.org/2000/svg" xmlns:xlink="http://www.w3.org/1999/xlink">
    <defs></defs>
    <g id="weather-icons-new" stroke="none" stroke-width="1" fill="none" fill-rule="evenodd">
        <g id="resort-weather-3" fill="#022A45">
            <path d="M50.5451097,32 L49.5999339,32 C49.2996248,32 49.0558957,31.7541684 49.0558957,31.4512688 C49.0558957,31.1483692 49.2996248,30.9025376 49.5999339,30.9025376 L50.5451097,30.9025376 C52.9533857,30.9025376 54.9119235,28.9263738 54.9119235,26.4965921 C54.9119235,24.0682737 52.9533857,22.0928415 50.5451097,22.0928415 C50.3565098,22.0928415 50.1715368,22.1096692 49.9887399,22.1323501 L49.439624,22.1974662 L49.3837694,21.6421503 C48.9521657,17.3415611 45.3898032,14.0974624 41.0969786,14.0974624 C38.187462,14.0974624 35.537633,15.5995225 34.0085228,18.1141746 C33.8511144,18.3724441 33.518163,18.4514614 33.2592008,18.2948901 C33.0038655,18.1368555 32.9233478,17.7988371 33.0800308,17.539836 C34.8093471,14.6974084 37.8066352,13 41.0969786,13 C45.77063,13 49.6797262,16.4021333 50.3978567,20.9983057 C50.4471828,20.9961107 50.4957836,20.9953791 50.5451097,20.9953791 C53.5532786,20.9953791 56,23.4632061 56,26.4965921 C56,29.5314413 53.5532786,32 50.5451097,32" id="Fill-56"></path>
            <path d="M11.4348315,28.2252536 C7.94550976,28.2252536 5.1072525,31.0663597 5.1072525,34.5591838 C5.1072525,38.05053 7.94550976,40.8916361 11.4348315,40.8916361 L38.9500562,40.8916361 C43.3296089,40.8916361 46.8927475,37.3249211 46.8927475,32.9409725 C46.8927475,28.5570239 43.3296089,24.98957 38.9500562,24.98957 C38.133642,24.98957 37.3238714,25.1151846 36.5443656,25.3634581 L36.0342913,25.5252792 L35.8549164,25.0206042 C34.1726307,20.2878904 29.6794001,17.1083639 24.6716661,17.1083639 C18.5500361,17.1083639 13.4699616,21.6992071 12.8543292,27.7870805 L12.7967521,28.352346 L12.2342678,28.2814107 C11.9308806,28.2429875 11.6762125,28.2252536 11.4348315,28.2252536 L11.4348315,28.2252536 Z M38.9500562,42 L11.4348315,42 C7.33504454,42 4,38.6623469 4,34.5591838 C4,30.4552818 7.33504454,27.1168898 11.4348315,27.1168898 C11.5603201,27.1168898 11.6865469,27.1205843 11.8194172,27.1279734 C12.7332696,20.7467531 18.1647122,16 24.6716661,16 C29.9724529,16 34.7476639,19.2593287 36.7141443,24.1627306 C37.444931,23.9757865 38.19491,23.8812061 38.9500562,23.8812061 C43.9400742,23.8812061 48,27.9459459 48,32.9409725 C48,37.9359991 43.9400742,42 38.9500562,42 L38.9500562,42 Z" id="Fill-57"></path>
        </g>
    </g>
</svg>
